<?xml version="1.0" encoding="iso-8859-1"?>
<!-- Generator: Adobe Illustrator 19.0.0, SVG Export Plug-In . SVG Version: 6.00 Build 0)  -->
<svg version="1.1" id="Capa_1" xmlns="http://www.w3.org/2000/svg" xmlns:xlink="http://www.w3.org/1999/xlink" x="0px" y="0px"
	 viewBox="0 0 512 512" style="enable-background:new 0 0 512 512;" xml:space="preserve">
<path style="fill:#88DEDC;" d="M179.768,296.475c6.39,0,9.901-7.531,5.702-12.347c-9.148-10.491-29.666-23.861-74.823-23.861
	s-65.675,13.37-74.823,23.861c-4.199,4.816-0.688,12.347,5.702,12.347L179.768,296.475L179.768,296.475z"/>
<circle style="fill:#E978A0;" cx="371.08" cy="202.88" r="93.59"/>
<path style="fill:#4D94AE;" d="M507.5,383.33c-46.704-33.044-108.791-98.385-158.373-164.106
	c-14.163-18.772-36.38-29.728-59.896-29.728h-66.462c-23.515,0-45.733,10.955-59.896,29.728
	C113.291,284.945,51.204,350.286,4.5,383.33c-8.483,6.002-4.165,19.38,6.227,19.38h490.546
	C511.665,402.711,515.983,389.332,507.5,383.33z"/>
<path style="fill:#FFFFFF;" d="M349.127,219.225c-14.163-18.772-36.38-29.727-59.896-29.727h-66.462
	c-23.516,0-45.733,10.955-59.896,29.727c-14.655,19.424-30.405,38.808-46.524,57.343c2.977,1.292,5.774,3.132,8.208,5.566l0,0
	c10.371,10.37,27.185,10.37,37.555,0l0,0c10.37-10.37,27.184-10.37,37.555,0l9.192,9.192c5.294,5.294,13.877,5.294,19.171,0
	l9.192-9.192c10.371-10.37,27.185-10.37,37.555,0l0,0c10.371,10.37,27.185,10.37,37.555,0l8.592-8.592
	c5.625-5.625,14.746-5.625,20.371,0l8.592,8.592c10.37,10.37,27.184,10.37,37.555,0l0,0c2.434-2.434,5.231-4.274,8.208-5.566
	C379.531,258.033,363.781,238.649,349.127,219.225z"/>
<g style="opacity:0.2;">
	<path d="M125.629,372.045c-2.2,0-4.38-0.963-5.861-2.815c-2.588-3.234-2.063-7.954,1.171-10.541
		c9.39-7.512,26.652-25.622,33.881-40.635c1.796-3.732,6.278-5.301,10.011-3.503c3.732,1.797,5.3,6.279,3.504,10.011
		c-8.798,18.272-27.993,37.814-38.025,45.84C128.927,371.508,127.273,372.045,125.629,372.045z"/>
	<path d="M394.067,369.156c-2.042,0-4.077-0.829-5.558-2.461c-9.527-10.505-18.236-23.672-23.295-35.22
		c-1.663-3.794,0.065-8.217,3.859-9.879s8.218,0.066,9.879,3.86c4.444,10.144,12.171,21.793,20.668,31.162
		c2.782,3.068,2.551,7.811-0.518,10.594C397.668,368.514,395.864,369.156,394.067,369.156z"/>
	<path d="M314.762,385.779c-2.478,0-4.904-1.228-6.334-3.474c-5.224-8.207-10.067-24.494-10.504-28.867
		c-0.411-4.122,2.597-7.796,6.719-8.208c4.116-0.412,7.783,2.587,8.205,6.698c0.317,2.473,4.354,16.227,8.234,22.322
		c2.224,3.495,1.194,8.13-2.3,10.354C317.533,385.4,316.14,385.779,314.762,385.779z"/>
</g>
<path style="opacity:0.1;enable-background:new    ;" d="M222.769,189.497c-23.516,0-45.733,10.955-59.896,29.728
	C113.291,284.945,51.204,350.286,4.5,383.33c-8.483,6.002-4.165,19.38,6.227,19.38h224.549c-10.392,0-14.71-13.378-6.227-19.38
	c46.704-33.044,43.153-79.766,6.049-153.256c-10.66-21.114,7.372-40.577,30.888-40.577H222.769z"/>
<g>
</g>
<g>
</g>
<g>
</g>
<g>
</g>
<g>
</g>
<g>
</g>
<g>
</g>
<g>
</g>
<g>
</g>
<g>
</g>
<g>
</g>
<g>
</g>
<g>
</g>
<g>
</g>
<g>
</g>
</svg>
