<?xml version="1.0" encoding="iso-8859-1"?>
<!-- Generator: Adobe Illustrator 19.0.0, SVG Export Plug-In . SVG Version: 6.00 Build 0)  -->
<svg version="1.1" id="Capa_1" xmlns="http://www.w3.org/2000/svg" xmlns:xlink="http://www.w3.org/1999/xlink" x="0px" y="0px"
	 viewBox="0 0 512 512" style="enable-background:new 0 0 512 512;" xml:space="preserve">
<path style="fill:#FFEF4A;" d="M87.509,30C94.478,64.192,124.78,90,161,90s66.522-25.808,73.491-60L161,15L87.509,30z"/>
<path style="fill:#555970;" d="M251,0H86v15c0,5.136,0.521,10.151,1.509,15H251c41.355,0,75,33.645,75,75v272h30V105
	C356,47.103,308.897,0,251,0z"/>
<polygon style="fill:#5475AC;" points="384.802,362 341,362 321,495.754 395.948,495.754 "/>
<polygon style="fill:#4482D9;" points="297.198,362 286.052,495.754 341,495.754 341,362 "/>
<polygon style="fill:#555970;" points="426,482 341,482 321,497 341,512 426,512 "/>
<rect x="256" y="482" style="fill:#5475AC;" width="85" height="30"/>
<g>
</g>
<g>
</g>
<g>
</g>
<g>
</g>
<g>
</g>
<g>
</g>
<g>
</g>
<g>
</g>
<g>
</g>
<g>
</g>
<g>
</g>
<g>
</g>
<g>
</g>
<g>
</g>
<g>
</g>
</svg>
